<?xml version="1.0" encoding="utf-8"?>
<!-- Generator: Adobe Illustrator 17.0.0, SVG Export Plug-In . SVG Version: 6.00 Build 0)  -->
<!DOCTYPE svg PUBLIC "-//W3C//DTD SVG 1.1//EN" "http://www.w3.org/Graphics/SVG/1.1/DTD/svg11.dtd">
<svg version="1.1" id="Layer_1" xmlns="http://www.w3.org/2000/svg" xmlns:xlink="http://www.w3.org/1999/xlink" x="0px" y="0px"
	 width="144.396px" height="505.389px" viewBox="0 0 144.396 505.389" enable-background="new 0 0 144.396 505.389"
	 xml:space="preserve">
<path fill-rule="evenodd" clip-rule="evenodd" fill="#EB2427" d="M665.526-0.172l-4.409,14.986l449.645,134.63
	c13.433,4.022,27.686-3.773,31.673-17.324l37.118-126.143v-6.149H665.526z"/>
<path fill-rule="evenodd" clip-rule="evenodd" fill="#31ADAD" d="M615.844-0.172l18.593,9.624l429.18,126.958
	c13.434,4.098,27.687-3.845,31.674-17.648l34.352-118.934H615.844z"/>
<path fill-rule="evenodd" clip-rule="evenodd" fill="#EB2427" d="M0.124,15.884l3.522-1.745l130.213,427.987
	c3.824,12.786-3.597,26.348-16.495,30.139L0,506.767L0.124,15.884z"/>
<path fill-rule="evenodd" clip-rule="evenodd" fill="#31ADAD" d="M0.12-0.371l123.57,397.628
	c3.972,12.786-3.738,26.347-17.136,30.139L0,457.547L0.12-0.371z"/>
<path fill-rule="evenodd" clip-rule="evenodd" fill="#FFFFFF" d="M997.42,22.416h85.732v59.11c0,8.251-6.75,15.001-15.001,15.001
	h-55.731c-8.251,0-15.001-6.75-15.001-15.001V22.416z"/>
<path fill-rule="evenodd" clip-rule="evenodd" fill="#571F1F" d="M1007.739,81.562c3.217,0.221,8.783-0.569,12.254-0.823
	c6.915-0.504,13.373-0.628,20.287-0.637c8.09-0.01,15.226,0.05,23.334,0.758c2.769,0.24,6.563,0.837,9.218,0.707l-0.32,2.608
	c-6.285-2.635-25.094-4.082-32.232-4.072c-0.98,0.004-2.052,0.064-3.041,0.106c-6.633,0.277-23.408,1.659-29.214,3.967
	L1007.739,81.562z"/>
<path fill="#592020" d="M1062.288,85.045c-0.158,0-0.329,0.005-0.51,0.015c-0.389,0.019-0.677,0.068-0.868,0.147
	c-0.191,0.078-0.348,0.212-0.47,0.404c-0.115,0.177-0.201,0.416-0.261,0.717l-0.085-0.008l0.07-1.39h5.1l0.07,1.39l-0.085,0.008
	c-0.068-0.348-0.174-0.613-0.319-0.794c-0.144-0.18-0.355-0.309-0.632-0.387c-0.233-0.068-0.63-0.102-1.189-0.102v3.849
	c0,0.257,0.014,0.448,0.044,0.572c0.028,0.125,0.082,0.226,0.161,0.307c0.071,0.073,0.151,0.126,0.241,0.158
	c0.089,0.033,0.206,0.053,0.35,0.061v0.085h-2.411v-0.085c0.146-0.008,0.264-0.028,0.353-0.061c0.089-0.032,0.168-0.084,0.239-0.158
	c0.077-0.081,0.131-0.183,0.16-0.306c0.03-0.124,0.044-0.314,0.044-0.573V85.045z M1056.429,90.054l0.012-1.559l0.089,0.015
	c0.106,0.396,0.232,0.708,0.379,0.935c0.274,0.421,0.621,0.632,1.037,0.632c0.291,0,0.531-0.097,0.72-0.291
	c0.189-0.193,0.283-0.439,0.283-0.735c0-0.129-0.021-0.26-0.063-0.392c-0.041-0.134-0.097-0.248-0.167-0.344
	c-0.073-0.098-0.177-0.192-0.309-0.283c-0.132-0.09-0.335-0.205-0.608-0.344c-0.241-0.119-0.424-0.222-0.552-0.305
	c-0.127-0.083-0.23-0.167-0.309-0.252c-0.218-0.237-0.326-0.525-0.326-0.864c0-0.208,0.042-0.409,0.127-0.603
	c0.083-0.193,0.202-0.359,0.354-0.498c0.268-0.246,0.586-0.369,0.952-0.369c0.12,0,0.229,0.012,0.331,0.035
	c0.1,0.025,0.235,0.071,0.406,0.142c0.126,0.05,0.212,0.082,0.257,0.095c0.047,0.014,0.086,0.02,0.123,0.02
	c0.087,0,0.147-0.063,0.178-0.192h0.085l0.023,1.497h-0.085c-0.068-0.239-0.126-0.423-0.177-0.551
	c-0.049-0.127-0.107-0.244-0.175-0.352c-0.124-0.197-0.26-0.342-0.408-0.437c-0.149-0.094-0.321-0.142-0.515-0.142
	c-0.282,0-0.505,0.095-0.67,0.287c-0.068,0.078-0.121,0.171-0.16,0.277c-0.04,0.105-0.059,0.211-0.059,0.318
	c0,0.421,0.27,0.759,0.813,1.016l0.532,0.257c0.411,0.194,0.707,0.409,0.888,0.643c0.207,0.262,0.31,0.567,0.31,0.915
	c0,0.23-0.046,0.45-0.14,0.66c-0.131,0.292-0.329,0.519-0.59,0.677c-0.263,0.158-0.572,0.238-0.929,0.238
	c-0.326,0-0.638-0.064-0.938-0.194c-0.157-0.069-0.25-0.108-0.281-0.119c-0.03-0.01-0.064-0.015-0.102-0.015
	c-0.121,0-0.205,0.061-0.25,0.181H1056.429z M1052.863,87.476h0.144c0.314,0,0.54-0.018,0.675-0.053
	c0.135-0.036,0.263-0.108,0.381-0.219c0.266-0.252,0.399-0.565,0.399-0.937c0-0.199-0.039-0.386-0.116-0.561
	c-0.077-0.175-0.184-0.319-0.321-0.432c-0.107-0.086-0.233-0.145-0.38-0.179c-0.147-0.035-0.357-0.051-0.627-0.051h-0.156V87.476z
	 M1052.863,87.561v1.334c0,0.257,0.014,0.448,0.044,0.571c0.029,0.125,0.082,0.227,0.161,0.307c0.068,0.071,0.148,0.122,0.238,0.157
	c0.09,0.034,0.207,0.054,0.356,0.062v0.085h-2.41v-0.085c0.146-0.008,0.263-0.028,0.353-0.062c0.089-0.035,0.167-0.086,0.236-0.157
	c0.08-0.081,0.134-0.183,0.162-0.306c0.027-0.124,0.041-0.314,0.041-0.573v-2.781c0-0.26-0.014-0.45-0.041-0.573
	c-0.028-0.124-0.082-0.225-0.162-0.306c-0.068-0.073-0.147-0.126-0.238-0.158c-0.09-0.032-0.208-0.053-0.35-0.06v-0.085h1.82
	c0.304,0,0.503,0.001,0.6,0.004c0.391,0.018,0.696,0.071,0.917,0.158c0.25,0.1,0.443,0.251,0.579,0.451
	c0.138,0.199,0.206,0.432,0.206,0.696c0,0.392-0.148,0.706-0.446,0.943c-0.09,0.071-0.191,0.129-0.3,0.173
	c-0.11,0.045-0.256,0.089-0.439,0.129c0.148,0.063,0.259,0.129,0.329,0.196c0.058,0.052,0.11,0.119,0.157,0.198
	c0.046,0.08,0.117,0.22,0.211,0.421c0.224,0.46,0.393,0.797,0.508,1.01c0.115,0.212,0.211,0.367,0.288,0.462
	c0.063,0.078,0.124,0.132,0.183,0.162c0.059,0.031,0.141,0.05,0.243,0.061v0.085h-1.245c-0.063-0.138-0.103-0.226-0.121-0.264
	l-0.264-0.599c-0.16-0.359-0.319-0.677-0.48-0.952c-0.161-0.274-0.309-0.461-0.443-0.562c-0.068-0.05-0.141-0.086-0.219-0.107
	c-0.078-0.022-0.175-0.033-0.288-0.033H1052.863z M1050.875,84.929v0.085c-0.143,0.008-0.259,0.028-0.349,0.06
	c-0.089,0.032-0.168,0.085-0.24,0.158c-0.098,0.1-0.158,0.241-0.18,0.42c-0.015,0.134-0.023,0.287-0.023,0.46v2.781
	c0,0.21,0.01,0.374,0.03,0.495c0.02,0.12,0.053,0.217,0.099,0.289c0.064,0.102,0.15,0.176,0.252,0.225
	c0.103,0.049,0.24,0.078,0.411,0.089v0.085h-2.403v-0.085c0.146-0.008,0.263-0.028,0.353-0.062c0.089-0.035,0.167-0.086,0.236-0.157
	c0.08-0.081,0.134-0.183,0.162-0.306c0.027-0.124,0.041-0.314,0.041-0.573v-2.781c0-0.26-0.014-0.45-0.041-0.573
	c-0.028-0.124-0.082-0.225-0.162-0.306c-0.068-0.073-0.147-0.126-0.238-0.158c-0.09-0.032-0.207-0.053-0.35-0.06v-0.085H1050.875z
	 M1045.876,87.391v1.504c0,0.256,0.014,0.445,0.041,0.567c0.028,0.122,0.081,0.225,0.16,0.308c0.068,0.073,0.148,0.126,0.241,0.161
	c0.091,0.034,0.21,0.054,0.354,0.062v0.085h-2.411v-0.085c0.121,0,0.236-0.019,0.345-0.058c0.108-0.04,0.193-0.091,0.254-0.157
	c0.071-0.078,0.121-0.185,0.152-0.322c0.029-0.135,0.045-0.323,0.045-0.562v-2.781c0-0.161-0.009-0.328-0.027-0.502
	c-0.024-0.222-0.134-0.387-0.326-0.495c-0.106-0.058-0.254-0.091-0.443-0.102v-0.085h3.948l0.108,1.227l-0.085,0.019
	c-0.063-0.192-0.121-0.336-0.174-0.431c-0.12-0.22-0.286-0.39-0.501-0.511c-0.124-0.071-0.267-0.119-0.427-0.148
	c-0.163-0.027-0.384-0.041-0.667-0.041h-0.587v2.231h0.152c0.448,0,0.774-0.099,0.977-0.297c0.089-0.085,0.156-0.187,0.201-0.304
	c0.046-0.116,0.076-0.269,0.092-0.457l0.085,0.004l-0.023,2.281h-0.085c-0.028-0.256-0.076-0.454-0.143-0.593
	c-0.067-0.14-0.17-0.252-0.307-0.337c-0.101-0.063-0.227-0.109-0.376-0.137C1046.301,87.405,1046.11,87.391,1045.876,87.391z
	 M1040.415,90.077v-0.085c0.143-0.008,0.26-0.028,0.35-0.061c0.092-0.032,0.171-0.084,0.242-0.158
	c0.077-0.081,0.13-0.183,0.158-0.306c0.027-0.124,0.041-0.314,0.041-0.573l0.004-0.736c0-0.105-0.022-0.223-0.065-0.352
	c-0.047-0.148-0.146-0.334-0.293-0.558l-0.978-1.468l-0.174-0.265c-0.128-0.191-0.254-0.322-0.377-0.392
	c-0.063-0.037-0.126-0.064-0.188-0.08c-0.063-0.014-0.152-0.025-0.264-0.03v-0.085h2.463v0.085
	c-0.208,0.013-0.341,0.031-0.399,0.057c-0.14,0.06-0.211,0.17-0.211,0.328c0,0.058,0.015,0.123,0.046,0.197
	c0.032,0.073,0.083,0.165,0.152,0.275l1.017,1.6l0.88-1.366l0.098-0.154c0.094-0.147,0.14-0.29,0.14-0.431
	c0-0.161-0.051-0.286-0.156-0.373c-0.103-0.089-0.249-0.132-0.435-0.132v-0.085h1.734v0.085c-0.13,0.015-0.231,0.038-0.3,0.066
	c-0.071,0.029-0.142,0.077-0.215,0.141c-0.17,0.162-0.359,0.401-0.567,0.722l-0.865,1.313c-0.105,0.156-0.168,0.27-0.19,0.343
	c-0.023,0.073-0.035,0.195-0.035,0.369v0.925c0,0.269,0.013,0.463,0.04,0.58c0.027,0.117,0.08,0.216,0.161,0.3
	c0.139,0.145,0.337,0.219,0.595,0.219v0.085H1040.415z M1034.478,90.077v-0.085c0.254,0,0.45-0.072,0.589-0.215
	c0.077-0.081,0.131-0.184,0.16-0.309c0.029-0.125,0.044-0.315,0.044-0.572v-2.784c0-0.266-0.016-0.463-0.048-0.59
	c-0.031-0.127-0.089-0.231-0.175-0.311c-0.071-0.066-0.149-0.114-0.235-0.144c-0.086-0.029-0.199-0.047-0.334-0.052v-0.085h2.403
	v0.085c-0.137,0.008-0.251,0.027-0.34,0.057c-0.088,0.029-0.165,0.079-0.233,0.143c-0.085,0.084-0.143,0.188-0.174,0.314
	c-0.029,0.126-0.045,0.32-0.045,0.585v2.177c0,0.334,0.009,0.584,0.026,0.747c0.018,0.163,0.053,0.297,0.103,0.4
	c0.088,0.182,0.218,0.314,0.392,0.399c0.174,0.083,0.403,0.126,0.69,0.126c0.299,0,0.551-0.04,0.756-0.118
	c0.205-0.08,0.374-0.202,0.504-0.368c0.088-0.113,0.161-0.242,0.218-0.386c0.055-0.143,0.108-0.332,0.156-0.566l0.093,0.008
	l-0.054,1.547H1034.478z M1034.101,84.929v0.085c-0.143,0.008-0.259,0.028-0.349,0.06c-0.089,0.032-0.169,0.085-0.24,0.158
	c-0.098,0.1-0.159,0.241-0.18,0.42c-0.016,0.134-0.023,0.287-0.023,0.46v2.781c0,0.21,0.01,0.374,0.029,0.495
	c0.021,0.12,0.053,0.217,0.099,0.289c0.064,0.102,0.149,0.176,0.252,0.225c0.103,0.049,0.24,0.078,0.411,0.089v0.085h-2.403v-0.085
	c0.146-0.008,0.263-0.028,0.353-0.062c0.089-0.035,0.167-0.086,0.236-0.157c0.08-0.081,0.134-0.183,0.162-0.306
	c0.027-0.124,0.041-0.314,0.041-0.573v-2.781c0-0.26-0.014-0.45-0.041-0.573c-0.028-0.124-0.082-0.225-0.162-0.306
	c-0.068-0.073-0.147-0.126-0.238-0.158c-0.09-0.032-0.208-0.053-0.35-0.06v-0.085H1034.101z M1031.314,85.014
	c-0.143,0.008-0.258,0.027-0.345,0.058c-0.086,0.032-0.166,0.083-0.24,0.157c-0.056,0.053-0.097,0.112-0.125,0.176
	c-0.027,0.065-0.046,0.146-0.056,0.243c-0.017,0.131-0.026,0.285-0.026,0.464v2.781c0,0.26,0.015,0.451,0.045,0.577
	c0.031,0.126,0.085,0.226,0.162,0.302c0.139,0.134,0.333,0.206,0.585,0.219v0.085h-2.407v-0.085
	c0.146-0.008,0.263-0.028,0.353-0.062c0.089-0.035,0.169-0.086,0.24-0.157c0.077-0.081,0.131-0.184,0.159-0.307
	c0.03-0.125,0.044-0.315,0.044-0.572V85.52l-1.945,4.558h-0.078l-1.933-4.49v3.306c0,0.26,0.014,0.45,0.044,0.573
	c0.028,0.124,0.083,0.225,0.16,0.306c0.071,0.073,0.151,0.126,0.24,0.158c0.09,0.033,0.206,0.053,0.35,0.061v0.085h-1.74v-0.085
	c0.143-0.008,0.259-0.028,0.349-0.061c0.089-0.032,0.169-0.084,0.24-0.158c0.077-0.081,0.131-0.184,0.16-0.307
	c0.029-0.125,0.044-0.315,0.044-0.572v-2.781c0-0.116-0.004-0.225-0.012-0.329c-0.013-0.185-0.041-0.322-0.086-0.407
	c-0.063-0.118-0.149-0.206-0.259-0.262c-0.109-0.057-0.255-0.09-0.435-0.1v-0.085h1.637l1.633,4.033l1.694-4.033h1.551V85.014z
	 M1022.332,87.854l-0.792-1.956l-0.752,1.956H1022.332z M1024.702,90.077h-2.482v-0.085c0.224-0.02,0.381-0.058,0.469-0.113
	c0.156-0.098,0.234-0.234,0.234-0.408c0-0.103-0.035-0.241-0.105-0.414l-0.064-0.158l-0.362-0.89h-1.664l-0.197,0.521l-0.095,0.233
	c-0.113,0.277-0.17,0.494-0.17,0.652c0,0.094,0.02,0.18,0.063,0.261c0.041,0.08,0.097,0.145,0.168,0.195
	c0.099,0.068,0.225,0.108,0.38,0.121v0.085h-1.692v-0.085c0.134-0.008,0.25-0.04,0.352-0.098c0.1-0.058,0.199-0.152,0.294-0.279
	c0.081-0.103,0.16-0.237,0.237-0.399c0.076-0.162,0.178-0.405,0.303-0.73l1.38-3.558h0.216l1.646,3.965
	c0.124,0.3,0.221,0.513,0.295,0.642c0.072,0.129,0.152,0.225,0.237,0.29c0.061,0.045,0.13,0.08,0.207,0.104
	c0.078,0.023,0.195,0.044,0.351,0.062V90.077z M1016.854,87.391v1.504c0,0.256,0.014,0.445,0.041,0.567
	c0.028,0.122,0.081,0.225,0.159,0.308c0.068,0.073,0.148,0.126,0.241,0.161c0.091,0.034,0.21,0.054,0.354,0.062v0.085h-2.411v-0.085
	c0.121,0,0.236-0.019,0.345-0.058c0.108-0.04,0.193-0.091,0.254-0.157c0.071-0.078,0.121-0.185,0.152-0.322
	c0.029-0.135,0.045-0.323,0.045-0.562v-2.781c0-0.161-0.009-0.328-0.027-0.502c-0.024-0.222-0.134-0.387-0.326-0.495
	c-0.106-0.058-0.254-0.091-0.443-0.102v-0.085h3.948l0.108,1.227l-0.085,0.019c-0.063-0.192-0.121-0.336-0.174-0.431
	c-0.12-0.22-0.286-0.39-0.501-0.511c-0.124-0.071-0.267-0.119-0.428-0.148c-0.162-0.027-0.384-0.041-0.667-0.041h-0.587v2.231h0.152
	c0.448,0,0.774-0.099,0.978-0.297c0.089-0.085,0.156-0.187,0.201-0.304c0.046-0.116,0.076-0.269,0.092-0.457l0.085,0.004
	l-0.023,2.281h-0.085c-0.028-0.256-0.076-0.454-0.143-0.593c-0.067-0.14-0.17-0.252-0.307-0.337
	c-0.102-0.063-0.226-0.109-0.376-0.137C1017.279,87.405,1017.088,87.391,1016.854,87.391z"/>
<path fill-rule="evenodd" clip-rule="evenodd" fill="#51B848" d="M1042.183,52.524c0-0.226-0.004-0.435,0-0.637
	c0.032-1.521,0.005-3.037-0.134-4.553c-0.18-1.988-0.541-3.938-1.294-5.806c-0.597-1.479-1.382-2.847-2.265-4.17
	c-0.074-0.11-0.166-0.212-0.29-0.29c0.083,0.217,0.157,0.44,0.245,0.657c0.573,1.419,1.03,2.875,1.363,4.368
	c0.268,1.225,0.458,2.458,0.518,3.711c0.065,1.304,0.046,2.602-0.065,3.901c-0.161,1.862-0.596,3.674-1.178,5.451
	c-0.069,0.216-0.143,0.281-0.369,0.146c-1.068-0.642-2.076-1.368-3.014-2.181c-0.999-0.869-1.901-1.835-2.699-2.889
	c-0.906-1.201-1.651-2.505-2.206-3.901c-0.527-1.331-0.883-2.708-1.058-4.133c-0.162-1.373-0.14-2.755-0.07-4.133
	c0.087-1.673,0.435-3.3,0.952-4.89c0.439-1.345,0.998-2.635,1.683-3.869c0.189-0.338,0.379-0.67,0.555-1.012
	c0.092-0.175,0.216-0.232,0.411-0.19c2.627,0.606,5.172,1.433,7.484,2.847c1.442,0.883,2.723,1.955,3.712,3.342
	c0.906,1.266,1.531,2.658,1.77,4.21c0.412,2.635,0.139,5.2-0.721,7.72c-0.749,2.19-1.835,4.201-3.111,6.124
	C1042.364,52.409,1042.332,52.492,1042.183,52.524"/>
<path fill-rule="evenodd" clip-rule="evenodd" fill="#39ABAE" d="M1053.504,45.008c-0.107-0.042-0.167,0.024-0.227,0.069
	c-1.572,1.137-2.908,2.491-3.952,4.142c-1.16,1.831-1.877,3.855-2.603,5.88c-0.027,0.073-0.05,0.148-0.083,0.217
	c-0.009,0.023-0.037,0.038-0.088,0.088c-0.171-0.477-0.278-0.944-0.365-1.41c-0.295-1.521-0.509-3.051-0.448-4.609
	c0.065-1.668,0.444-3.249,1.141-4.77c0.536-1.169,1.276-2.168,2.275-2.977c1.082-0.878,2.325-1.424,3.665-1.78
	c1.475-0.388,2.977-0.49,4.488-0.457c0.726,0.014,1.451,0.092,2.182,0.143c0.222,0.014,0.319,0.121,0.365,0.343
	c0.398,1.904,0.481,3.823,0.301,5.759c-0.19,2.034-0.735,3.948-1.701,5.741c-0.532,0.985-1.188,1.881-1.951,2.704
	c-0.893,0.962-1.904,1.761-3.024,2.436c-1.15,0.693-2.371,1.201-3.656,1.572c-0.43,0.124-0.855,0.24-1.29,0.319
	c-0.259,0.046-0.313-0.046-0.309-0.273c0.028-0.748,0.097-1.497,0.175-2.241c0.214-1.909,0.809-3.707,1.581-5.455
	c0.851-1.919,1.992-3.642,3.383-5.209C1053.421,45.179,1053.504,45.128,1053.504,45.008"/>
<path fill-rule="evenodd" clip-rule="evenodd" fill="#39ABAE" d="M1025.367,48.503c0.43,0.212,0.86,0.439,1.239,0.707
	c0.499,0.342,1.012,0.68,1.47,1.081c0.605,0.537,1.201,1.082,1.706,1.715c0.85,1.068,1.511,2.237,2.029,3.49
	c0.282,0.68,0.296,0.698-0.445,0.754c-2.519,0.195-4.876-0.291-6.933-1.83c-1.71-1.276-2.828-2.986-3.518-4.997
	c-0.268-0.786-0.439-1.595-0.572-2.413c-0.032-0.175-0.019-0.319,0.176-0.416c1.635-0.827,3.346-1.391,5.205-1.395
	c0.993-0.005,1.956,0.235,2.811,0.703c0.975,0.526,1.765,1.299,2.344,2.273c0.878,1.489,1.321,3.111,1.515,4.813
	c0.024,0.184,0.056,0.37,0.08,0.554c0.009,0.065,0.04,0.148-0.048,0.18c-0.064,0.024-0.096-0.05-0.137-0.092
	c-0.408-0.402-0.722-0.883-1.096-1.312c-0.954-1.1-1.978-2.117-3.269-2.824C1027.119,49.052,1026.274,48.697,1025.367,48.503"/>
<path fill-rule="evenodd" clip-rule="evenodd" fill="#51B848" d="M1026.38,58.518c-0.62,0.047-1.18,0.079-1.737,0.121
	c-0.93,0.074-1.831,0.268-2.687,0.656c-0.119,0.051-0.332,0.093-0.281,0.245c0.056,0.18,0.245,0.046,0.361,0.019
	c0.643-0.157,1.28-0.3,1.941-0.365c0.661-0.061,1.304,0.013,1.942,0.125c0.485,0.083,0.956,0.231,1.438,0.351
	c0.18,0.041,0.217,0.124,0.12,0.295c-0.879,1.544-2.113,2.686-3.805,3.287c-1.567,0.56-3.134,0.491-4.701-0.009
	c-0.546-0.175-1.063-0.411-1.576-0.67c-0.167-0.083-0.227-0.199-0.186-0.38c0.282-1.262,0.638-2.487,1.419-3.545
	c0.716-0.966,1.669-1.526,2.885-1.632c1.595-0.143,3.009,0.374,4.354,1.146C1026.024,58.251,1026.214,58.307,1026.38,58.518"/>
<path fill-rule="evenodd" clip-rule="evenodd" fill="#51B848" d="M1059.365,59.8c-1.932-0.573-3.771-0.171-5.644,0.467
	c0.074-0.301,0.277-0.444,0.42-0.606c0.874-0.998,1.877-1.84,3.161-2.256c1.179-0.379,2.312-0.268,3.394,0.351
	c1.16,0.666,1.914,1.701,2.588,2.815c0.121,0.194,0.134,0.365-0.042,0.555c-0.915,0.966-1.956,1.752-3.218,2.2
	c-1.635,0.578-3.258,0.555-4.866-0.144c-0.722-0.314-1.364-0.743-1.979-1.229c-0.158-0.13-0.199-0.213,0-0.347
	c1.35-0.938,2.806-1.59,4.474-1.696c0.522-0.033,1.04-0.056,1.563-0.028C1059.268,59.887,1059.319,59.892,1059.365,59.8"/>
<path fill-rule="evenodd" clip-rule="evenodd" fill="#571F1F" d="M1033.198,59.43c0.361,0.129,0.568,0.374,0.795,0.578
	c0.984,0.883,1.771,1.927,2.427,3.069c0.652,1.147,1.151,2.357,1.502,3.624c0.351,1.243,0.545,2.519,0.651,3.809
	c0.126,1.452,0.019,2.899-0.189,4.332c-0.13,0.887-0.315,2.782-0.745,3.309c-0.708,0.019-3.411,0.375-4.645,0.624
	c1.775-3.074,2.246-5.764,2.343-9.276C1035.44,65.994,1034.889,62.611,1033.198,59.43"/>
<path fill-rule="evenodd" clip-rule="evenodd" fill="#571F1F" d="M1048.026,61.528c-2.704,6.074-2.848,11.376,0.217,17.288
	c-1.678-0.263-2.658-0.448-4.082-0.56c-0.319-1.09-0.739-3.041-0.85-4.169c-0.138-1.474-0.051-2.94,0.19-4.392
	c0.245-1.492,0.707-2.925,1.383-4.284c0.55-1.105,1.261-2.095,2.093-2.992C1047.296,62.079,1047.642,61.769,1048.026,61.528"/>
<path fill-rule="evenodd" clip-rule="evenodd" fill="#571F1F" d="M1038.074,57.821c-0.005,1.188-0.596,2.135-1.503,2.482
	c-0.878,0.342-1.826,0.093-2.454-0.647c-1.049-1.234-0.725-3.24,0.656-4.068c0.879-0.527,2.104-0.249,2.741,0.611
	C1037.894,56.707,1038.102,57.266,1038.074,57.821"/>
<path fill-rule="evenodd" clip-rule="evenodd" fill="#571F1F" d="M1047.938,60.35c-0.018,0.559-0.328,1.284-1.105,1.719
	c-1.1,0.624-2.404,0.088-2.847-1.156c-0.318-0.896-0.12-2.089,0.67-2.755c0.814-0.689,2.21-0.526,2.802,0.366
	C1047.842,59.097,1047.943,59.411,1047.938,60.35"/>
<path fill-rule="evenodd" clip-rule="evenodd" fill="#571F1F" d="M1028.012,58.995c0.212,0.407,0.398,0.832,0.66,1.206
	c0.893,1.271,2.057,2.14,3.582,2.477c0.532,0.121,1.072,0.167,1.618,0.085c0.241-0.038,0.328,0.041,0.352,0.286
	c0.06,0.689,0.147,1.373,0.236,2.057c0.027,0.217-0.047,0.3-0.264,0.319c-0.874,0.06-1.71-0.083-2.505-0.444
	c-1.678-0.758-2.751-2.057-3.361-3.771c-0.157-0.44-0.268-0.887-0.332-1.345c-0.042-0.278-0.047-0.564-0.069-0.846
	C1027.956,59.009,1027.983,59.005,1028.012,58.995"/>
<path fill-rule="evenodd" clip-rule="evenodd" fill="#571F1F" d="M1040.081,65.272c0.333,0.273,0.587,0.684,0.813,1.109
	c2.386,7.312,1.563,11.732,1.262,11.695c-0.439-0.055-1.016-0.028-1.461-0.024c-0.199,0-0.264-0.092-0.189-0.402
	c0.573-5.847,0.144-10.516-0.406-12.11C1040.076,65.472,1040.02,65.402,1040.081,65.272"/>
<path fill-rule="evenodd" clip-rule="evenodd" fill="#571F1F" d="M1052.682,60.697c0.092,0.296-0.01,0.522-0.066,0.739
	c-0.499,1.876-1.562,3.277-3.448,3.919c-0.587,0.204-1.207,0.277-1.84,0.19c-0.217-0.028-0.273-0.107-0.245-0.325
	c0.073-0.55,0.235-1.081,0.323-1.622c0.032-0.185,0.129-0.244,0.314-0.217c1.886,0.278,3.333-0.475,4.456-1.945
	C1052.348,61.214,1052.496,60.969,1052.682,60.697"/>
<path fill-rule="evenodd" clip-rule="evenodd" fill="#571F1F" d="M1040.468,64.69c-0.86,0.014-1.464-0.764-1.405-1.687
	c0.032-0.457,0.19-0.874,0.564-1.165c0.675-0.517,1.53-0.36,1.992,0.356c0.545,0.836,0.231,2.024-0.629,2.4
	C1040.825,64.667,1040.649,64.685,1040.468,64.69"/>
<path fill-rule="evenodd" clip-rule="evenodd" fill="#571F1F" d="M1043.219,63.59c0.671,0.929,0.771,1.941,0.392,3.014
	c-0.208,0.577-0.601,1.03-1.105,1.387c-0.162,0.12-0.272,0.101-0.373-0.088c-0.107-0.208-0.223-0.42-0.367-0.605
	c-0.18-0.236-0.11-0.389,0.116-0.522c0.504-0.301,0.827-0.753,1.049-1.281c0.208-0.476,0.311-0.975,0.231-1.498
	c-0.017-0.133-0.017-0.268-0.031-0.397C1043.163,63.594,1043.191,63.59,1043.219,63.59"/>
<path fill-rule="evenodd" clip-rule="evenodd" fill="#571F1F" d="M1038.994,64.94c-0.523,0.725-0.601,1.515-0.304,2.348
	c0.161,0.453,0.466,0.804,0.859,1.086c0.125,0.088,0.213,0.078,0.291-0.069c0.084-0.166,0.176-0.328,0.287-0.476
	c0.144-0.185,0.083-0.301-0.092-0.402c-0.393-0.236-0.642-0.592-0.818-1.003c-0.157-0.37-0.24-0.758-0.179-1.165
	c0.014-0.106,0.018-0.208,0.022-0.314L1038.994,64.94z"/>
</svg>
